<svg id="Layer_1" data-name="Layer 1" xmlns="http://www.w3.org/2000/svg" viewBox="0 0 210.53 166.06"><defs><style>.cls-1{fill:#e68531;}.cls-2{fill:#007a6c;}.cls-3{fill:none;stroke:#007a6c;stroke-linecap:round;stroke-linejoin:round;stroke-width:3.99px;}</style></defs><path class="cls-1" d="M117,189.69h7.08a7.62,7.62,0,0,0,5-1.78l8.68-7.39a6.74,6.74,0,0,0,2.34-4.36l.64-5.84a6.67,6.67,0,0,0-3.06-6.28l-2.28-1.49c-1.23-.82-2.72-.86-4.2-1.25l-14.42-2.2H115l-13.89,2.21a8.83,8.83,0,0,0-4.21,1.25l-2.27,1.49a6.65,6.65,0,0,0-3.06,6.27l.63,5.85a6.7,6.7,0,0,0,2.35,4.35l8.68,7.4a7.61,7.61,0,0,0,5,1.78H117Z" transform="translate(-10.85 -36.97)"/><path class="cls-1" d="M102,160a1,1,0,0,1-1-.38,5.24,5.24,0,0,1-1-2.56c-.15-1.34.21-3.42,1.55-4a1.72,1.72,0,0,1,1.56.07c.54.36.57,1.09.61,1.78,0,1.11-.27,1.43-.26,2.26a3.55,3.55,0,0,0,.28,1.32.91.91,0,0,1-.53,1.22l-.17.05Z" transform="translate(-10.85 -36.97)"/><path class="cls-1" d="M131.93,160.28a1.2,1.2,0,0,0,1.24-.39,5.27,5.27,0,0,0,1.13-2.4c.23-1.33,0-3.42-1.3-4a1.76,1.76,0,0,0-1.55,0c-.56.33-.65,1-.72,1.73-.12,1.11.17,1.45.11,2.27a3.28,3.28,0,0,1-.31,1.19,1.06,1.06,0,0,0,.63,1.43l.15,0Z" transform="translate(-10.85 -36.97)"/><path class="cls-1" d="M100.43,188.06c-3.05.07-5.29,3.85-5.47,4.18-2.7,4.63.91,10.87,1.29,10.79.22,0-.65-2.06.11-4.95a8.52,8.52,0,0,1,2.82-4.74c2.36-1.84,4.95-1.29,5.07-2.21S102.6,188,100.43,188.06Z" transform="translate(-10.85 -36.97)"/><path class="cls-1" d="M132.34,187.8c3,.06,5.28,3.85,5.47,4.17,2.7,4.63-.92,10.87-1.31,10.79-.2,0,.66-2.06-.1-4.94a8.53,8.53,0,0,0-2.81-4.75c-2.36-1.83-5-1.29-5.08-2.21S130.16,187.74,132.34,187.8Z" transform="translate(-10.85 -36.97)"/><path class="cls-1" d="M92.1,181.27a15.66,15.66,0,0,0-7.69,1.84,10.58,10.58,0,0,0-4.87,6.22c-1.29,5,2.15,9.18,2.43,9.09s-1.54-2.88-.55-6.23a9.07,9.07,0,0,1,4.12-5.13c4.66-2.49,9.86.65,10.73-.88C97,185.05,94.79,181.21,92.1,181.27Z" transform="translate(-10.85 -36.97)"/><path class="cls-1" d="M140.4,181a15.82,15.82,0,0,1,7.7,1.84,10.66,10.66,0,0,1,4.86,6.23c1.29,5-2.16,9.17-2.44,9.08s1.55-2.88.56-6.22A9.12,9.12,0,0,0,147,186.8c-4.65-2.5-9.85.64-10.73-.89C135.5,184.78,137.71,180.94,140.4,181Z" transform="translate(-10.85 -36.97)"/><path class="cls-1" d="M89.26,174.5c-2.65-1.16-7.9-1.05-10.15-.38-1.72.52-6.39,1.91-9.24,6.35-3.3,5.15-1.85,10.79-1.65,10.79s-.43-3.52,1.83-6.82c2.75-4,8-5.11,8.53-5.22,6.11-1.19,10.18,2.07,11.77.29C91.42,178.35,91.07,175.29,89.26,174.5Z" transform="translate(-10.85 -36.97)"/><path class="cls-1" d="M143.34,174.23c2.65-1.16,7.89-1,10.15-.38,1.71.52,6.37,1.91,9.23,6.35,3.3,5.15,1.86,10.79,1.65,10.79s.44-3.52-1.82-6.82c-2.75-4-8-5.11-8.54-5.22-6.11-1.19-10.18,2.07-11.76.29C141.18,178.08,141.51,175,143.34,174.23Z" transform="translate(-10.85 -36.97)"/><path class="cls-1" d="M90.24,170.48c-4.5-1.23-6.68-5.73-7.43-6.7C81,161.39,87.05,158.1,90,159c1.09.31.75,1.3,1.32,2.13.83,1.26,2.31,2.41,2.1,2.52C91.46,164.6,89,168.44,90.24,170.48Z" transform="translate(-10.85 -36.97)"/><path class="cls-1" d="M81.55,159.93c.76.66,3.64-2.4,6.25-2.4,1,0-.54-1.88-.41-3,.18-1.37,1.09-2.75.18-3.94-.64-.85-2.41-2.75-3.81-2.15C81.93,149.26,80.14,158.72,81.55,159.93Z" transform="translate(-10.85 -36.97)"/><path class="cls-2" d="M24,37H208.2c7.28,0,13.18,5.5,13.18,12.3V96c0,6.79-5.9,12.3-13.18,12.3H24c-7.28,0-13.18-5.51-13.18-12.3V49.27C10.85,42.47,16.75,37,24,37Z" transform="translate(-10.85 -36.97)"/><line class="cls-3" x1="82.58" y1="75.03" x2="82.58" y2="109.54"/><path class="cls-1" d="M82.92,146.84a5.31,5.31,0,0,1-2.66-3.31c-.82-3,2.07-5.89,5-8.86,1.92-1.95,5.27-3.58,11.94-6.82.2-.1.66-.32.89-.15s.44.46-.73,2.78c-2,4-7.35,11.6-8.14,14-.07.24-.26.77,0,1s.83,0,1.41-.3a25.39,25.39,0,0,0,5-2.82c.25-.18,1.13-1.09,1.82-1.11a1.07,1.07,0,0,1,.82.37c.36.56-1,2.09-1.46,2.64-4.12,4.48-6.27,6.71-7.42,6.33s-.71-2.12-2.48-3.08C85.49,146.74,84.47,147.54,82.92,146.84Z" transform="translate(-10.85 -36.97)"/><line class="cls-3" x1="82.58" y1="105.14" x2="82.58" y2="116.31"/><path class="cls-1" d="M141.72,170.48c4.49-1.23,6.67-5.73,7.43-6.7,1.84-2.39-4.23-5.68-7.17-4.81-1.09.31-.75,1.3-1.32,2.13-.82,1.26-2.31,2.41-2.09,2.52C140.5,164.6,143,168.44,141.72,170.48Z" transform="translate(-10.85 -36.97)"/><path class="cls-1" d="M150.41,159.93c-.77.66-3.65-2.4-6.26-2.4-.94,0,.55-1.88.41-3-.17-1.37-1.09-2.75-.18-3.94.65-.85,2.41-2.75,3.81-2.15C150,149.26,151.81,158.72,150.41,159.93Z" transform="translate(-10.85 -36.97)"/><line class="cls-3" x1="127.68" y1="75.03" x2="127.68" y2="109.54"/><path class="cls-1" d="M149.05,146.84a5.31,5.31,0,0,0,2.66-3.31c.83-3-2.06-5.89-5-8.86-1.93-1.95-5.27-3.58-11.94-6.82-.2-.1-.66-.32-.9-.15s-.42.46.74,2.78c2,4,7.34,11.6,8.13,14,.09.24.27.77,0,1s-.82,0-1.4-.3a25.39,25.39,0,0,1-5-2.82c-.25-.18-1.14-1.09-1.81-1.11a1.11,1.11,0,0,0-.83.37c-.34.56,1,2.09,1.47,2.64,4.13,4.48,6.27,6.71,7.43,6.33s.71-2.12,2.47-3.08C146.46,146.74,147.48,147.54,149.05,146.84Z" transform="translate(-10.85 -36.97)"/><line class="cls-3" x1="127.68" y1="105.14" x2="127.68" y2="116.31"/></svg>